<svg xmlns="http://www.w3.org/2000/svg" viewBox="0 0 24 24" role="img" aria-label="C">
  <path fill="#00599C" d="M10.5 1.07c-.74 0-1.5.19-2.2.55L2.55 4.88A4.4 4.4 0 0 0 .35 8.7v6.6c0 1.58.84 3.03 2.2 3.82l5.75 3.26c.7.36 1.46.55 2.2.55s1.5-.19 2.2-.55l5.75-3.26a4.4 4.4 0 0 0 2.2-3.82V8.7a4.4 4.4 0 0 0-2.2-3.82L12.7 1.62c-.7-.36-1.46-.55-2.2-.55zm0 1.8c.47 0 .93.12 1.35.34l5.75 3.26c.84.48 1.35 1.36 1.35 2.23v6.6c0 .87-.51 1.75-1.35 2.23l-5.75 3.26c-.42.22-.88.34-1.35.34s-.93-.12-1.35-.34L3.4 17.53c-.84-.48-1.35-1.36-1.35-2.23V8.7c0-.87.51-1.75 1.35-2.23L9.15 3.21c.42-.22.88-.34 1.35-.34z"/>
  <text x="10.5" y="16" text-anchor="middle" font-size="11" font-family="serif" font-weight="bold" fill="#00599C">C</text>
</svg>
