<svg xmlns="http://www.w3.org/2000/svg" viewBox="0 0 24 24" role="img" aria-label="Python">
  <path fill="#3776AB" d="M11.998 0C5.37 0 5.819 2.895 5.819 2.895l.009 2.994h6.312v.9H3.623S0 6.3 0 12.978c0 6.678 3.693 6.444 3.693 6.444h2.205v-3.1s-.119-3.693 3.635-3.693h6.26s3.518.057 3.518-3.4V3.6S19.686 0 11.998 0zm-3.473 1.97a1.11 1.11 0 0 1 1.11 1.111 1.11 1.11 0 0 1-1.11 1.11 1.11 1.11 0 0 1-1.11-1.11 1.11 1.11 0 0 1 1.11-1.111z"/>
  <path fill="#FFD43B" d="M12.002 24c6.628 0 6.179-2.895 6.179-2.895l-.009-2.993h-6.312v-.9h8.517S24 17.7 24 11.022c0-6.678-3.693-6.444-3.693-6.444h-2.205v3.1s.119 3.694-3.635 3.694h-6.26S4.689 11.314 4.689 14.8v3.6S3.629 24 12.002 24zm3.473-1.969a1.11 1.11 0 0 1-1.11-1.11 1.11 1.11 0 0 1 1.11-1.111 1.11 1.11 0 0 1 1.11 1.11 1.11 1.11 0 0 1-1.11 1.111z"/>
</svg>
